<?xml version="1.0" encoding="utf-8"?>
<!-- Generator: Adobe Illustrator 16.0.0, SVG Export Plug-In . SVG Version: 6.00 Build 0)  -->
<!DOCTYPE svg PUBLIC "-//W3C//DTD SVG 1.1//EN" "http://www.w3.org/Graphics/SVG/1.1/DTD/svg11.dtd">
<svg version="1.1" xmlns="http://www.w3.org/2000/svg" xmlns:xlink="http://www.w3.org/1999/xlink" x="0px" y="0px" width="500px"
	 height="200px" viewBox="0 0 500 200" enable-background="new 0 0 500 200" xml:space="preserve">
<g id="Layer_1" display="none">
	<rect display="inline" fill="#A054CC" width="50" height="50"/>
	<rect x="50" display="inline" fill="#A054CC" width="50" height="50"/>
	<rect x="100" display="inline" fill="#A054CC" width="50" height="50"/>
	<rect x="150" display="inline" fill="#D64D95" width="50" height="50"/>
	<rect x="200" display="inline" fill="#37D3B5" width="50" height="50"/>
	<rect x="250" display="inline" fill="#2DB3E8" width="50" height="50"/>
	<rect x="300" display="inline" fill="#2DB3E8" width="50" height="50"/>
	<rect x="350" display="inline" fill="#A054CC" width="50" height="50"/>
	<rect x="400" display="inline" fill="#D64D95" width="50" height="50"/>
	<rect x="450" display="inline" fill="#A054CC" width="50" height="50"/>
	<rect y="50" display="inline" fill="#FFA300" width="50" height="50"/>
	<rect x="50" y="50" display="inline" fill="#FFA300" width="50" height="50"/>
	<rect x="100" y="50" display="inline" fill="#D64D95" width="50" height="50"/>
	<rect x="150" y="50" display="inline" fill="#D64D95" width="50" height="50"/>
	<rect x="200" y="50" display="inline" fill="#D64D95" width="50" height="50"/>
	<rect x="250" y="50" display="inline" fill="#D64D95" width="50" height="50"/>
	<rect x="300" y="50" display="inline" fill="#D64D95" width="50" height="50"/>
	<rect x="350" y="50" display="inline" fill="#D64D95" width="50" height="50"/>
	<rect x="400" y="50" display="inline" fill="#D64D95" width="50" height="50"/>
	<rect x="450" y="50" display="inline" fill="#D64D95" width="50" height="50"/>
	<rect y="100" display="inline" fill="#37D3B5" width="50" height="50"/>
	<rect x="50" y="100" display="inline" fill="#37D3B5" width="50" height="50"/>
	<rect x="100" y="100" display="inline" fill="#565656" width="50" height="50"/>
	<rect x="150" y="100" display="inline" fill="#565656" width="50" height="50"/>
	<rect x="200" y="100" display="inline" fill="#2DB3E8" width="50" height="50"/>
	<rect x="250" y="100" display="inline" fill="#2DB3E8" width="50" height="50"/>
	<rect x="300" y="100" display="inline" fill="#37D3B5" width="50" height="50"/>
	<rect x="350" y="100" display="inline" fill="#37D3B5" width="50" height="50"/>
	<rect x="450" y="100" display="inline" fill="#FFA300" width="50" height="50"/>
	<rect x="400" y="150" display="inline" fill="#C6C6C6" width="50" height="50"/>
	<rect x="450" y="150" display="inline" fill="#C6C6C6" width="50" height="50"/>
	<rect x="300" y="150" display="inline" fill="#C6C6C6" width="50" height="50"/>
	<rect x="350" y="150" display="inline" fill="#C6C6C6" width="50" height="50"/>
	<rect x="200" y="150" display="inline" fill="#C6C6C6" width="50" height="50"/>
	<rect x="250" y="150" display="inline" fill="#C6C6C6" width="50" height="50"/>
	<rect x="100" y="150" display="inline" fill="#D64D95" width="50" height="50"/>
	<rect x="150" y="150" display="inline" fill="#C6C6C6" width="50" height="50"/>
	<rect y="150" display="inline" fill="#37D3B5" width="50" height="50"/>
	<rect x="50" y="150" display="inline" fill="#D64D95" width="50" height="50"/>

</g>
<g id="Layer_2">
	<g>
		<path fill="#FFFFFF" d="M6.758,35.404h7.843v-1.811H10.01v-17.76h4.591v-1.475H6.758V35.404z M36.383,14.359v1.475h3.922v17.762
			h-3.922v1.809h7.307V14.359H36.383z M19.496,19.372l-3.909,10.336h2.286l0.81-2.3h3.866l0.782,2.3h2.36l-3.866-10.336H19.496z
			 M19.278,25.712l1.347-3.793h0.027l1.304,3.793H19.278z M26.59,29.708h2.271v-4.271h4.329V23.67h-4.329v-2.387h4.996v-1.91H26.59
			V29.708z"/>
	</g>
	<g>
		<path fill="#FFFFFF" d="M59.155,21.622l3.748,0.852l1.193,2.784l-1.532,4.036l2.783-0.515l0.908,0.343l0.908,0.566l0.271,4.741
			l24.354-18.321L59.155,21.622z M66.267,27.492l-1.832,0.346l0.802-2.06l26.319-9.611L66.267,27.492z"/>
	</g>
	<rect x="112.472" y="11.652" fill="#FFFFFF" width="5.325" height="5.325"/>
	<rect x="111.998" y="19.5" fill="#FFFFFF" width="27.451" height="5.087"/>
	<rect x="111.998" y="27.23" fill="#FFFFFF" width="17.984" height="5.088"/>
	<rect x="111.998" y="34.959" fill="#FFFFFF" width="25.084" height="5.088"/>
	<g>
		<path fill="#FFFFFF" d="M222.111,32.693v4.359h22.78v-4.359H222.111z M231.893,20.938l-19.417,11.914l2.279,3.711l19.417-11.912
			L231.893,20.938z M217.148,14.947L205.76,34.676l3.774,2.178l11.389-19.726L217.148,14.947z"/>
	</g>
	<g>
		<path fill="#FFFFFF" d="M275.224,11.051c-7.428,0-13.447,6.022-13.447,13.447s6.021,13.447,13.447,13.447
			s13.447-6.022,13.447-13.447S282.649,11.051,275.224,11.051z M275.224,35.406c-6.023,0-10.907-4.885-10.907-10.908
			c0-6.024,4.884-10.908,10.907-10.908c6.024,0,10.906,4.884,10.906,10.908C286.13,30.521,281.248,35.406,275.224,35.406z"/>
	</g>
	<path fill="#FFFFFF" d="M276.893,28.805c0,0.874-0.708,1.582-1.582,1.582l0,0c-0.876,0-1.583-0.707-1.583-1.582v-8.614
		c0-0.874,0.707-1.582,1.583-1.582l0,0c0.872,0,1.582,0.707,1.582,1.582V28.805z"/>
	<g>
		<path id="path2396" fill="#FFFFFF" d="M387.251,37.858c-0.051-0.113-1.164-2.9-2.473-6.195l-2.385-5.994l-0.527-0.31
			c-0.949-0.558-2.068-0.816-2.885-0.665c-1.224,0.227-2.271,1.118-4.102,3.501c-1.336,1.74-2.066,2.459-2.924,2.882
			c-0.656,0.323-0.676,0.331-1.65,0.327c-1.092-0.004-1.507-0.118-2.393-0.66l-0.457-0.28l-2.516-6.335
			c-1.385-3.484-2.517-6.387-2.517-6.45c0-0.08,0.141-0.038,0.45,0.135c1.072,0.603,2.175,0.863,2.963,0.699
			c1.225-0.254,2.187-1.068,3.963-3.355c1.195-1.537,1.933-2.334,2.529-2.744c1.236-0.844,2.74-0.892,4.24-0.134
			c0.564,0.286,0.58,0.289,0.58,0.125c0-0.102,0.357-0.25,0.627-0.261c0.059-0.001,10.246,25.496,10.246,25.648
			c0,0.032-0.092,0.081-0.205,0.11c-0.113,0.03-0.266,0.076-0.339,0.103C387.387,38.04,387.31,37.99,387.251,37.858z
			 M371.497,31.116c0.232-0.088,0.674-0.341,0.981-0.56l0.556-0.397l-0.142-0.359c-0.079-0.198-0.303-0.756-0.495-1.238l-0.35-0.874
			l-0.51,0.382c-0.504,0.38-1.262,0.726-1.582,0.726c-0.096,0-0.17,0.046-0.17,0.1c0,0.054,0.198,0.614,0.443,1.241
			C370.728,31.425,370.712,31.414,371.497,31.116z M369.701,28.839c0-0.025-0.213-0.573-0.472-1.217
			c-0.259-0.645-0.472-1.203-0.472-1.236c0-0.032,0.223-0.124,0.492-0.202c0.521-0.15,0.894-0.348,1.405-0.742
			c0.171-0.132,0.33-0.241,0.354-0.241s0.243,0.511,0.49,1.135c0.249,0.623,0.49,1.172,0.532,1.219
			c0.089,0.097,0.544-0.38,1.368-1.433c0.284-0.366,0.525-0.665,0.535-0.665s0.226,0.52,0.475,1.158
			c0.252,0.635,0.486,1.155,0.523,1.155c0.035,0,0.251-0.239,0.474-0.535c0.225-0.294,0.634-0.772,0.907-1.06l0.498-0.525
			l-0.417-1.059c-0.229-0.583-0.446-1.134-0.477-1.224c-0.054-0.148-0.101-0.126-0.452,0.214c-0.213,0.208-0.639,0.695-0.945,1.085
			c-0.305,0.388-0.567,0.706-0.586,0.706c-0.014,0-0.248-0.561-0.515-1.246c-0.269-0.686-0.497-1.235-0.511-1.22
			c-0.01,0.014-0.328,0.413-0.705,0.883c-0.377,0.47-0.8,0.963-0.936,1.092l-0.255,0.238l-0.454-1.181
			c-0.246-0.647-0.483-1.213-0.521-1.253c-0.039-0.041-0.235,0.063-0.441,0.231c-0.416,0.34-1.16,0.714-1.589,0.796
			c-0.149,0.027-0.276,0.078-0.276,0.11c0,0.031,0.211,0.585,0.47,1.231c0.261,0.645,0.472,1.193,0.472,1.217
			c0,0.092-0.842,0.039-1.311-0.083c-0.268-0.069-0.758-0.264-1.087-0.43c-0.33-0.166-0.597-0.289-0.597-0.275
			c0,0.013,0.219,0.584,0.492,1.264l0.492,1.238l0.64,0.321c0.353,0.176,0.853,0.376,1.111,0.443
			C368.874,28.867,369.701,28.926,369.701,28.839z M381.682,24.119c-0.241-0.605-0.481-1.153-0.532-1.214
			c-0.145-0.175-0.812-0.491-1.463-0.689c-0.664-0.205-1.557-0.25-1.487-0.075c0.025,0.058,0.247,0.618,0.495,1.241l0.452,1.135
			h0.533c0.575,0,1.383,0.221,2.007,0.55c0.212,0.111,0.396,0.194,0.409,0.179C382.111,25.232,381.924,24.725,381.682,24.119z
			 M367.606,23.722c0.023-0.059-0.168-0.626-0.422-1.264c-0.254-0.636-0.444-1.185-0.426-1.22c0.022-0.035,0.096-0.064,0.16-0.064
			c0.283,0,1.104-0.382,1.582-0.734c0.512-0.376,0.521-0.378,0.594-0.186c0.316,0.818,0.896,2.255,0.928,2.291
			c0.049,0.054,0.658-0.627,1.322-1.476c0.282-0.364,0.543-0.645,0.58-0.625c0.03,0.022,0.264,0.561,0.513,1.201
			s0.48,1.153,0.515,1.138c0.032-0.015,0.373-0.41,0.75-0.881c0.381-0.472,0.787-0.948,0.908-1.061l0.221-0.206l0.079,0.206
			c0.044,0.112,0.259,0.667,0.477,1.229c0.222,0.564,0.411,1.038,0.429,1.054c0.02,0.018,0.219-0.111,0.447-0.286
			c0.437-0.336,1.215-0.72,1.466-0.722c0.411-0.003,0.404-0.106-0.104-1.381c-0.271-0.675-0.498-1.237-0.509-1.247
			s-0.209,0.031-0.441,0.094c-0.524,0.138-1.007,0.382-1.442,0.728c-0.182,0.147-0.355,0.265-0.385,0.265
			c-0.031,0-0.262-0.53-0.516-1.177c-0.254-0.646-0.477-1.193-0.495-1.213c-0.056-0.069-0.804,0.71-1.328,1.385
			c-0.283,0.367-0.544,0.664-0.578,0.664c-0.035,0-0.267-0.522-0.519-1.16c-0.254-0.639-0.48-1.174-0.51-1.191
			c-0.029-0.018-0.324,0.322-0.663,0.752c-0.609,0.784-1.192,1.407-1.251,1.337c-0.017-0.02-0.234-0.558-0.483-1.193
			c-0.252-0.635-0.468-1.168-0.48-1.186c-0.013-0.015-0.229,0.126-0.479,0.311c-0.588,0.438-0.779,0.537-1.367,0.699l-0.484,0.133
			l0.46,1.152c0.254,0.634,0.462,1.206,0.462,1.272c0,0.097-0.106,0.108-0.564,0.059c-0.633-0.067-1.232-0.254-1.896-0.592
			c-0.246-0.123-0.447-0.193-0.447-0.153c0,0.243,0.893,2.312,1.062,2.465C365.335,23.442,367.487,24.037,367.606,23.722z
			 M379.654,19.026l-0.493-1.233l-0.533-0.281c-0.873-0.464-2.421-0.788-2.421-0.507c0,0.061,0.208,0.628,0.464,1.262l0.463,1.153
			l0.557,0.057c0.696,0.07,1.328,0.259,1.941,0.58c0.258,0.135,0.48,0.236,0.492,0.224C380.14,20.27,379.925,19.705,379.654,19.026z
			 M374.915,17.331c0.17-0.086,0.462-0.201,0.649-0.259c0.188-0.057,0.386-0.118,0.444-0.136c0.066-0.021-0.059-0.43-0.373-1.212
			c-0.259-0.651-0.506-1.217-0.548-1.262c-0.175-0.182-1.231,0.271-2.033,0.871l-0.257,0.192l-0.469-1.174
			c-0.26-0.645-0.511-1.188-0.562-1.203c-0.083-0.028-1.452,1.554-1.722,1.996c-0.113,0.184-0.086,0.291,0.338,1.366
			c0.252,0.641,0.48,1.181,0.508,1.196c0.025,0.02,0.336-0.333,0.688-0.775c0.645-0.817,1.175-1.38,1.228-1.312
			c0.024,0.03,0.65,1.581,0.922,2.284c0.075,0.193,0.075,0.193,0.477-0.111C374.427,17.622,374.745,17.415,374.915,17.331z
			 M378.089,15.141c0-0.023-0.193-0.534-0.43-1.135c-0.492-1.239-0.588-1.35-1.513-1.736c-0.581-0.243-1.854-0.513-1.955-0.412
			c-0.022,0.024,0.179,0.609,0.448,1.298l0.488,1.254h0.518c0.541,0,1.712,0.351,2.107,0.625
			C377.956,15.181,378.089,15.222,378.089,15.141z"/>
	</g>
	<g>
		<path fill="#FFFFFF" d="M438.866,34.254h-29.413c-1.292,0-2.343-1.052-2.343-2.344V18.98c0-1.294,1.051-2.344,2.343-2.344h29.413
			c1.293,0,2.346,1.052,2.346,2.344v12.931C441.212,33.204,440.159,34.254,438.866,34.254z M409.453,18.199
			c-0.431,0-0.782,0.351-0.782,0.781v12.931c0,0.431,0.352,0.781,0.782,0.781h29.413c0.432,0,0.781-0.353,0.781-0.781V18.98
			c0-0.431-0.35-0.781-0.781-0.781H409.453z"/>
	</g>
	<g>
		<g>
			<path fill="#FFFFFF" d="M444.231,19.35c0,0-0.48-2.377-1.963-3.861c-1.482-1.481-3.664-1.766-3.664-1.766l-5.421,5.422
				l5.626,5.625L444.231,19.35z M438.404,25.173l-5.626-5.626l-0.002,0.003l-0.454-0.452l-6.33,6.33l0.454,0.453l-0.002,0.001
				l5.627,5.625l0.004-0.003l0.451,0.453l6.329-6.33L438.404,25.173L438.404,25.173z M430.431,26.557
				c-0.506,0.505-1.327,0.505-1.834,0c-0.506-0.505-0.506-1.329,0-1.834c0.507-0.505,1.328-0.505,1.834,0
				C430.937,25.23,430.937,26.052,430.431,26.557z M433.179,29.306c-0.505,0.505-1.325,0.505-1.832,0
				c-0.505-0.506-0.505-1.326,0-1.832c0.507-0.506,1.327-0.506,1.834,0C433.685,27.98,433.685,28.799,433.179,29.306z
				 M433.454,23.533c-0.506,0.505-1.326,0.505-1.83,0c-0.507-0.506-0.507-1.326,0-1.831c0.504-0.508,1.324-0.508,1.83,0
				C433.96,22.208,433.96,23.027,433.454,23.533z M436.203,26.281c-0.507,0.506-1.329,0.506-1.833,0
				c-0.506-0.505-0.506-1.326,0-1.831c0.504-0.505,1.326-0.505,1.833,0C436.708,24.957,436.708,25.776,436.203,26.281z
				 M420.216,32.108c0,0-0.531,1.436,1.955,3.921s3.673,1.707,3.673,1.707l5.825-5.826l-5.627-5.627L420.216,32.108z"/>
		</g>
	</g>
	<g>
		<rect x="411.159" y="20.31" fill="#FFFFFF" width="17.336" height="1.603"/>
	</g>
	<g>
		<rect x="411.159" y="24.006" fill="#FFFFFF" width="13.072" height="1.599"/>
	</g>
	<g>
		<rect x="411.159" y="27.698" fill="#FFFFFF" width="10.229" height="1.602"/>
	</g>
	<path id="path3571"  fill="#FFFFFF" d="M187.262,12.104h-23.864c-2.686,0-4.862,2.07-4.862,4.624
		v16.306c0,2.554,2.177,4.625,4.862,4.625h23.864c2.685,0,4.863-2.071,4.863-4.625V16.728
		C192.125,14.174,189.947,12.104,187.262,12.104L187.262,12.104z M165.057,29.761h-2.32l-2.734-4.799l2.734-4.8h2.32l-2.735,4.8
		L165.057,29.761z M188.021,29.762h-2.32l2.735-4.8l-2.735-4.8h2.32l2.734,4.8L188.021,29.762z"/>
	<path id="path3970"  fill="#FFFFFF" d="M290.251,82.687h-5.748V67.422l5.027-4.96
		c0.473-0.467,0.479-1.229,0.012-1.701c-0.467-0.473-1.228-0.478-1.701-0.012l-4.635,4.573h-15.752v-4.536
		c0-0.665-0.538-1.203-1.203-1.203c-0.664,0-1.203,0.539-1.203,1.203v4.536h-4.854c-0.664,0-1.203,0.539-1.203,1.203
		c0,0.664,0.539,1.203,1.203,1.203h4.854V83.89c0,0.665,0.538,1.203,1.203,1.203h15.845v5.431c0,0.665,0.539,1.203,1.203,1.203
		s1.203-0.538,1.203-1.203v-5.431h5.749c0.664,0,1.202-0.538,1.202-1.203S290.916,82.687,290.251,82.687L290.251,82.687z
		 M280.767,67.728l-13.312,13.133V67.728H280.767L280.767,67.728z M269.03,82.687l13.066-12.892v12.892H269.03z"/>
	<path id="path3929"  fill="#FFFFFF" d="M325.337,60.464c-1.181,0.018-2.536,0.437-3.576,1.109
		c-0.201,0.13-3.412,3.164-7.135,6.742c-7.337,7.051-7.218,6.924-7.218,7.698c0,0.727,0.445,1.199,1.431,1.521l0.502,0.163
		l0.492-0.463c0.613-0.576,0.762-0.649,1.302-0.645c0.772,0.007,1.481,0.423,2.14,1.254c0.178,0.224,1.77,2.543,3.537,5.152
		c3.061,4.518,3.252,4.781,3.975,5.483c1.041,1.01,1.97,1.504,3.273,1.741c1.574,0.287,3.521-0.211,4.954-1.267
		c0.271-0.2,3.447-3.216,7.059-6.701c7.122-6.875,6.966-6.707,6.966-7.497c0-0.512-0.231-0.936-0.664-1.211
		c-0.315-0.201-0.965-0.439-1.195-0.439c-0.048,0-0.346,0.227-0.664,0.505c-0.471,0.414-0.635,0.515-0.906,0.554
		c-0.653,0.094-1.512-0.266-2.094-0.879c-0.195-0.206-1.324-1.8-2.51-3.543c-4.199-6.174-4.598-6.738-5.16-7.318
		c-1.256-1.294-2.718-1.946-4.395-1.958C325.412,60.463,325.375,60.463,325.337,60.464z M324.071,70.476
		c0.335-0.001,0.714,0,1.146,0c3.924,0,3.901-0.002,4.137,0.436c0.196,0.365,0.148,0.714-0.132,0.983l-0.246,0.236l-1.439,0.048
		c-2.527,0.085-5.732,0.056-5.99-0.054c-0.675-0.287-0.762-1.141-0.152-1.503C321.602,70.499,321.731,70.479,324.071,70.476z
		 M321.676,73.185c0.191,0,0.396,0,0.614,0c0.807,0,1.809,0.005,3.053,0.009l6.033,0.019l0.23,0.248
		c0.205,0.222,0.225,0.285,0.193,0.608c-0.027,0.264-0.09,0.415-0.238,0.557l-0.201,0.193l-6.044,0.017
		c-6.63,0.018-6.332,0.036-6.575-0.417c-0.146-0.271-0.145-0.535,0.002-0.806C318.931,73.264,318.812,73.19,321.676,73.185
		L321.676,73.185z M323.089,75.877c0.615,0,1.322,0,2.135,0c6.497,0,6.236-0.017,6.479,0.437c0.199,0.37,0.15,0.713-0.142,0.994
		l-0.258,0.248h-6.057c-6.652,0-6.257,0.026-6.507-0.438c-0.145-0.27-0.144-0.533,0.003-0.804
		C318.956,75.917,318.782,75.88,323.089,75.877z M321.673,78.579h3.671h3.673l0.276,0.244c0.245,0.216,0.277,0.285,0.277,0.596
		s-0.032,0.379-0.277,0.595l-0.276,0.244h-3.669c-3.647,0-3.669-0.001-3.877-0.158c-0.483-0.366-0.495-0.956-0.026-1.335
		L321.673,78.579z"/>
	<path id="path3803"  fill="#FFFFFF" d="M375.224,61.991c-7.12,0-12.891,5.771-12.891,12.891
		s5.771,12.891,12.891,12.891c7.119,0,12.891-5.771,12.891-12.891S382.343,61.991,375.224,61.991L375.224,61.991z M375.164,63.477
		l2.726,7.654l8.125,0.105l-6.438,4.958l2.41,7.758l-6.703-4.591l-6.635,4.69l2.295-7.794l-6.512-4.86l8.123-0.226L375.164,63.477
		L375.164,63.477z"/>
	<path id="path3727"  fill="#FFFFFF" d="M440.122,87.631l-12.236-12.234
		c-0.539-0.54-1.307-0.709-1.992-0.51c1.402-1.625,2.252-3.739,2.252-6.049c0-5.11-4.157-9.268-9.268-9.268
		s-9.268,4.157-9.268,9.268c0,5.265,4.074,9.268,9.268,9.268c2.139,0,4.11-0.729,5.68-1.949c-0.247,0.708-0.09,1.526,0.477,2.093
		l12.234,12.235c0.788,0.787,2.064,0.787,2.854,0C440.909,89.697,440.909,88.419,440.122,87.631L440.122,87.631z M415.111,71.127
		h-2.127l1.072-2.951L415.111,71.127z M412.629,73.756h3.448l1.029,2.839C415.306,76.184,413.735,75.161,412.629,73.756z
		 M420.267,76.672l-4.867-12.454h-2.626l-1.85,4.75c-0.001-0.043-0.003-0.086-0.003-0.13c0-4.388,3.569-7.958,7.957-7.958
		c4.389,0,7.959,3.57,7.959,7.958C426.837,72.752,423.995,76.014,420.267,76.672L420.267,76.672z"/>
	<g id="g3780" transform="matrix(2.2062622,0,0,2.2062622,-2595.7337,-810.17102)">
		<path id="path3782"  fill="#FFFFFF" d="M1397.223,406.112h-8.378
			c-0.424,0-0.768-0.344-0.768-0.768v-2.913l-2.212-1.277l2.212-1.277v-2.912c0-0.424,0.344-0.769,0.768-0.769h8.378
			c0.424,0,0.769,0.345,0.769,0.769v8.378C1397.991,405.768,1397.647,406.112,1397.223,406.112z M1387.247,401.155l1.747,1.008
			v2.727c0,0.167,0.136,0.304,0.304,0.304h7.472c0.168,0,0.304-0.136,0.304-0.304v-7.472c0-0.168-0.136-0.304-0.304-0.304h-7.472
			c-0.167,0-0.304,0.136-0.304,0.304v2.727L1387.247,401.155z"/>
	</g>
	<path id="path3358"  fill="#FFFFFF" d="M496.331,12.837l-5.684-2.74V8.982h-31.049v31.049h31.049
		V18.774l5.582-5.831L496.331,12.837z M489.25,38.633h-28.254V10.378h26.86l-13.381,17.025l-6.082-6.081l-3.653,6.595l10.161,7.27
		l0.006-0.006l0.018,0.019l0.832-0.868l2.823-2.823l-0.062-0.062l10.731-11.212V38.633L489.25,38.633z"/>
	<g id="g3917" transform="matrix(2.2951499,0,0,2.2951499,-223.94941,-211.2402)">
		<g id="g3899">
			<path id="polygon3901"  fill="#FFFFFF" d="M103.038,118.048c-1.106,0-2.006,0.9-2.006,2.006
				c0,1.002,0.738,1.835,1.7,1.983v9.241h0.613v-4.302h4.76c0.148,0.961,0.981,1.699,1.983,1.699c1.106,0,2.006-0.9,2.006-2.007
				c0-1.107-0.9-2.006-2.006-2.006c-1.002,0-1.836,0.738-1.983,1.699h-4.76v-4.325c0.962-0.148,1.7-0.981,1.7-1.983
				C105.045,118.947,104.145,118.048,103.038,118.048z M103.038,118.698c0.747,0,1.356,0.608,1.356,1.356s-0.609,1.355-1.356,1.355
				c-0.748,0-1.356-0.608-1.356-1.355S102.291,118.698,103.038,118.698z M108.515,119.728v0.651h3.037v-0.651H108.515z
				 M114.698,125.151v1.193h-1.193v0.651h1.193v1.193h0.65v-1.193h1.193v-0.651h-1.193v-1.193H114.698z"/>
		</g>
	</g>
	<polygon fill="#FFFFFF" points="335.074,9.178 334.857,12.256 338.034,15.434 341.113,15.215 	"/>
	
		<rect x="332.382" y="15.022" transform="matrix(0.7072 -0.707 0.707 0.7072 86.6445 240.9308)" fill="#FFFFFF" width="3.617" height="1.679"/>
	<path fill="#FFFFFF" d="M329.15,16.001c-0.71,0-1.377,0.276-1.879,0.778l-7.067,7.067c-0.38,0.379-1.573,1.852-2.581,3.297
		c-1.758,2.521-2.119,3.678-1.377,4.419l2.474,2.474c0.164,0.164,0.456,0.36,0.914,0.36c0.322,0,1.077,0,3.837-1.971
		c1.276-0.911,2.587-1.968,2.966-2.347l7.067-7.067c1.037-1.037,1.037-2.722,0-3.759l-2.473-2.474
		C330.529,16.277,329.86,16.001,329.15,16.001L329.15,16.001z"/>
	<path fill="#FFFFFF" d="M325.47,21.638c0.188,0,0.363,0.072,0.495,0.205l2.474,2.473c0.272,0.273,0.272,0.716,0,0.989l-3.389,3.388
		c-0.725,0.726-4.068,3.235-5.223,3.682l-1.92-1.92c0.447-1.155,2.955-4.498,3.681-5.224l3.388-3.388
		C325.109,21.71,325.283,21.638,325.47,21.638z"/>
	<polyline fill="#FFFFFF" points="310.027,40.585 316.792,33.818 316.099,33.126 316.099,33.126 309.333,39.892 310.027,40.585 	"/>
	<path id="rect3102"  fill="#FFFFFF" d="M10.648,112.947c-1.503,0-2.712,1.209-2.712,2.711v19.445
		c0,1.502,1.209,2.713,2.712,2.713h29.168c1.503,0,2.713-1.211,2.713-2.713v-19.445c0-1.502-1.21-2.711-2.713-2.711H10.648z
		 M21.888,115.697h6.687l-3.343,4.717L21.888,115.697L21.888,115.697z M15.632,121.574h19.2v7.652h-19.2V121.574L15.632,121.574z
		 M25.232,130.348l3.343,4.717h-6.686L25.232,130.348z"/>
	<g id="g3442" transform="matrix(2.7789824,0,0,2.7789824,1908.3063,-570.16054)">
		<path id="path3446"  fill="#FFFFFF" d="M-654.669,244.98h-9.732
			c-0.144,0-0.261,0.117-0.261,0.261v9.731c0,0.144,0.117,0.261,0.261,0.261h9.732c0.144,0,0.261-0.117,0.261-0.261v-9.731
			C-654.407,245.097-654.525,244.98-654.669,244.98z M-656.276,251.41l-1.629-1.629l-0.326,0.325l-1.304,1.304l-0.326,0.326
			l1.63,1.629h-4.562v-4.563l1.629,1.63l0.326-0.326l1.304-1.304l0.326-0.325l-1.629-1.63h4.562V251.41z"/>
	</g>
	<g>
		<polygon fill="#FFFFFF" points="71.847,71.593 58.174,71.593 60.195,75.504 58.174,79.477 71.847,79.477 73.869,75.504 		"/>
		<path fill="#FFFFFF" d="M72.099,79.879H57.516l2.227-4.377l-2.231-4.313h14.584l2.233,4.312L72.099,79.879z M58.833,79.073h12.769
			l1.814-3.568L71.605,72H58.837l1.813,3.503L58.833,79.073z"/>
	</g>
	<g>
		<path fill="#FFFFFF" d="M88.671,79.879H73.079l2.223-4.377l-2.231-4.313h15.598L90.9,75.5L88.671,79.879z M74.395,79.073h13.779
			l1.816-3.568L88.176,72H74.399l1.81,3.503L74.395,79.073z"/>
	</g>
	<g>
		<path fill="#FFFFFF" d="M124.115,77.92l1.455-3.953h-11.355c-1.592,0-2.888-1.295-2.888-2.888v-8.741
			c0-1.593,1.296-2.888,2.888-2.888h21.647c1.591,0,2.888,1.295,2.888,2.888v8.741c0,1.593-1.297,2.888-2.888,2.888h-3.507
			l1.767,3.936L124.115,77.92z M114.214,60.96c-0.758,0-1.377,0.618-1.377,1.378v8.741c0,0.759,0.619,1.378,1.377,1.378h13.52
			l-1.453,3.949l5.505-0.01l-1.767-3.939h5.838c0.76,0,1.378-0.619,1.378-1.378v-8.741c0-0.76-0.618-1.378-1.378-1.378H114.214z"/>
	</g>
	<g>
		<polygon fill="#FFFFFF" points="135.65,65.143 134.465,63.959 135.65,62.777 134.945,62.074 133.761,63.254 132.58,62.074 
			131.877,62.777 133.06,63.959 131.877,65.143 132.58,65.846 133.761,64.664 134.945,65.846 		"/>
		<path fill="#FFFFFF" d="M134.945,65.899l-1.184-1.184l-1.181,1.184l-0.756-0.756l1.184-1.184l-1.184-1.182l0.756-0.756
			l1.181,1.185l1.184-1.185l0.756,0.756l-1.183,1.182l1.183,1.184L134.945,65.899z M131.928,65.143l0.652,0.652l1.181-1.185
			l1.184,1.185l0.652-0.652l-1.183-1.184l1.183-1.182l-0.652-0.649l-1.184,1.181l-1.181-1.181l-0.652,0.649l1.185,1.182
			L131.928,65.143z"/>
	</g>
	<g>
		<path fill="#FFFFFF" d="M129.652,90.309l-0.827-0.883c0.861-0.806,1.356-1.897,1.396-3.072c0.037-1.176-0.385-2.297-1.19-3.157
			l0.881-0.827c1.027,1.097,1.565,2.524,1.517,4.023C131.379,87.893,130.749,89.282,129.652,90.309z"/>
	</g>
	<g>
		<path fill="#FFFFFF" d="M129.135,83.272c-1.145-1.072-1.725-2.104-1.775-3.153c-0.05-1.062,0.446-2.134,1.515-3.274l0.881,0.826
			c-0.835,0.889-1.222,1.674-1.189,2.394c0.033,0.718,0.49,1.479,1.394,2.326L129.135,83.272z"/>
	</g>
	<g>
		<g>
			<polygon fill="#FFFFFF" points="177.402,79.809 166.263,79.809 166.263,61.836 185.076,61.836 185.076,63.523 167.947,63.523 
				167.947,78.123 177.402,78.123 			"/>
		</g>
		<polygon fill="#FFFFFF" points="174.146,81.823 177.004,78.965 174.146,76.107 176.571,76.107 179.428,78.965 176.571,81.823 		
			"/>
		<g>
			<polygon fill="#FFFFFF" points="185.169,86.922 166.357,86.922 166.357,85.236 183.484,85.236 183.484,70.637 174.031,70.637 
				174.031,68.95 185.169,68.95 			"/>
		</g>
		<polygon fill="#FFFFFF" points="177.285,66.936 174.427,69.794 177.285,72.652 174.861,72.652 172.004,69.794 174.861,66.936 		
			"/>
	</g>
	<g id="g3643" transform="matrix(2.7193463,0,0,2.4700177,-85.315279,389.02428)">
		<path id="rect3619"  fill="#FFFFFF" d="M107.913-133.391v11.822h12.429v-11.822h-1.274v1.314
			h-1.166v-1.314h-1.742v1.314h-1.165v-1.314h-1.743v1.314h-1.166v-1.314h-1.743v1.314h-1.165v-1.314H107.913L107.913-133.391z
			 M109.176-131.158h9.904v6.983l-1.292,1.189h-8.613V-131.158z M115.764-129.191c-0.194,0-0.397,0.021-0.609,0.063
			c-0.212,0.042-0.428,0.104-0.65,0.185v0.853c0.222-0.124,0.433-0.219,0.637-0.284c0.204-0.065,0.387-0.098,0.551-0.098
			c0.229,0,0.407,0.056,0.532,0.169c0.125,0.113,0.188,0.273,0.188,0.479c0,0.135-0.034,0.271-0.103,0.408
			c-0.068,0.137-0.18,0.295-0.335,0.473c-0.126,0.145-0.484,0.53-1.073,1.157l-0.496,0.527v0.782h2.94v-0.806h-1.951
			c0.157-0.159,0.369-0.373,0.637-0.64c0.493-0.493,0.793-0.808,0.903-0.949c0.149-0.195,0.254-0.372,0.315-0.531
			c0.061-0.159,0.092-0.33,0.092-0.512c0-0.395-0.14-0.706-0.421-0.935C116.64-129.077,116.254-129.191,115.764-129.191
			L115.764-129.191z M111.837-129.107l-0.958,0.229v0.825l0.952-0.235v3.006h-1.023v0.806h2.938v-0.806h-1.023v-3.825H111.837
			L111.837-129.107z"/>
		<g id="g3623">
		</g>
	</g>
	<g>
		<polygon fill="#FFFFFF" points="120.588,114.982 120.588,119.527 116.043,119.527 116.043,124.072 111.498,124.072 
			111.498,128.617 125.132,128.617 125.132,114.982 		"/>
		<g>
			<path fill-rule="evenodd" clip-rule="evenodd" fill="#FFFFFF" d="M126.269,114.982c7.529,0,13.634,6.105,13.634,13.635h-13.634
				V114.982z"/>
			<path fill="#FFFFFF" d="M139.759,131.844c-0.309,0-0.723,0.25-0.867,0.506v2.248h-0.493v-3.174h0.493v0.506
				c0.256-0.328,0.624-0.578,1.058-0.578v0.506C139.89,131.852,139.831,131.844,139.759,131.844"/>
			<polygon fill="#FFFFFF" points="137.565,134.598 135.148,134.598 135.148,134.209 136.895,131.857 135.148,131.857 
				135.148,131.424 137.538,131.424 137.538,131.799 135.778,134.164 137.565,134.164 			"/>
			<rect x="133.821" y="131.424" fill="#FFFFFF" width="0.492" height="3.174"/>
			<path fill="#FFFFFF" d="M134.07,130.971c-0.184,0-0.335-0.145-0.335-0.328s0.151-0.336,0.335-0.336s0.329,0.152,0.329,0.336
				S134.254,130.971,134.07,130.971"/>
			<path fill="#FFFFFF" d="M132.343,134.598v-2.076c0-0.566-0.29-0.736-0.716-0.736c-0.388,0-0.749,0.236-0.939,0.492v2.32h-0.493
				v-3.174h0.493v0.459c0.224-0.268,0.657-0.537,1.137-0.537c0.657,0,1.005,0.334,1.005,1.023v2.229H132.343z"/>
			<path fill="#FFFFFF" d="M129.386,131.844c-0.309,0-0.723,0.25-0.867,0.506v2.248h-0.493v-3.174h0.493v0.506
				c0.256-0.328,0.624-0.578,1.058-0.578v0.506C129.518,131.852,129.458,131.844,129.386,131.844"/>
			<polygon fill="#FFFFFF" points="115.242,134.598 115.242,130.912 113.758,134.598 113.534,134.598 112.043,130.912 
				112.043,134.598 111.498,134.598 111.498,130.215 112.28,130.215 113.647,133.592 115.006,130.215 115.788,130.215 
				115.788,134.598 			"/>
			<path fill="#FFFFFF" d="M127.232,133.047c0-0.953-0.565-1.701-1.524-1.701c-0.906,0-1.563,0.742-1.563,1.662
				c0,0.99,0.677,1.668,1.623,1.668c0.513,0,0.939-0.178,1.261-0.492l-0.237-0.322c-0.256,0.262-0.617,0.406-0.985,0.406
				c-0.683,0-1.097-0.498-1.136-1.096h2.562V133.047z M124.663,132.803c0.026-0.479,0.361-1.051,1.038-1.051
				c0.722,0,1.038,0.586,1.044,1.051H124.663z"/>
			<path fill="#FFFFFF" d="M122.85,130.215v1.689c-0.256-0.35-0.644-0.559-1.071-0.559c-0.828,0-1.413,0.65-1.413,1.668
				c0,1.031,0.585,1.662,1.413,1.662c0.447,0,0.834-0.23,1.071-0.553v0.475h0.493v-4.383H122.85z M122.85,133.73
				c-0.171,0.275-0.559,0.506-0.946,0.506c-0.644,0-1.024-0.52-1.024-1.223s0.381-1.229,1.024-1.229
				c0.388,0,0.775,0.236,0.946,0.512V133.73z"/>
			<path fill="#FFFFFF" d="M118.179,131.346c-0.966,0-1.57,0.742-1.57,1.662c0,0.918,0.604,1.668,1.57,1.668s1.57-0.75,1.57-1.668
				C119.749,132.088,119.145,131.346,118.179,131.346 M118.179,134.236c-0.677,0-1.051-0.578-1.051-1.229
				c0-0.645,0.374-1.223,1.051-1.223s1.051,0.578,1.051,1.223C119.23,133.658,118.856,134.236,118.179,134.236"/>
		</g>
	</g>
	<g id="layer1" transform="translate(-291.62063,-284.125)">
		<g id="g3876">
			<path id="path3825"  fill="#FFFFFF" d="M717.192,394.754c-2.046,0-3.703,0.732-3.703,1.635
				c0,0.172,0.061,0.336,0.17,0.49l-0.008,0.006c2.091,1.707,6.176,1.223,7.137-0.162v0.066c0.072-0.127,0.111-0.262,0.111-0.4
				l-0.004-0.018C720.874,395.475,719.223,394.754,717.192,394.754L717.192,394.754z M720.782,396.941l-0.049,1.709
				c-1.326,1.584-5.453,1.881-7.293-0.027l0.049-1.641l-2.197,1.285c-0.198-0.014-0.4-0.027-0.607-0.027
				c-2.045,0-3.703,0.734-3.703,1.637c0,0.217,0.101,0.422,0.274,0.611c2.118,1.617,6.097,1.131,7.042-0.234l-0.049,1.924
				c-1.327,1.584-5.453,1.881-7.294-0.027l0.036-1.357l-2.841,1.664l13.154,7.555l13.146-7.6l-3.025-1.713l-0.041,1.402
				c-1.326,1.584-5.453,1.881-7.293-0.027l0.054-1.873c2.022,1.852,6.247,1.4,7.271,0.004c0.001-0.004,0.003-0.006,0.005-0.01
				c0.06-0.113,0.094-0.232,0.094-0.355l-0.004-0.018c-0.021-0.896-1.672-1.617-3.703-1.617c-0.252,0-0.496,0.016-0.732,0.035
				L720.782,396.941L720.782,396.941z M720.949,403.994l-0.05,1.928c-1.326,1.584-5.453,1.881-7.293-0.027l0.049-1.875
				C715.692,405.887,719.965,405.414,720.949,403.994z"/>
			<path id="path3805"   fill="#FFFFFF" d="M703.741,404.846
				l12.248,7.27v11.041l-12.32-6.906L703.741,404.846z"/>
			<path id="path3805-4"   fill="#FFFFFF" d="M730.735,404.586
				l-12.32,7.633v11.039l12.32-6.904V404.586z"/>
		</g>
	</g>
	<g>
		<path fill="#FFFFFF" d="M174.644,110.805c-7.692,0-13.926,6.301-13.926,14.076c0,7.776,6.234,14.077,13.926,14.077
			c7.692,0,13.926-6.301,13.926-14.077C188.571,117.105,182.337,110.805,174.644,110.805z M176.691,135.829
			c0.206-1.396,0.412-3.319,0.618-4.543c1.291-0.854,2.095-2.295,2.531-4.271c0.168-0.369-1.776,0.903-2.128,0.987
			c-0.302-0.168-0.854-0.987-1.072-1.223c-0.269-0.302-1.642-1.14-2.531-1.441c0.017,0.335,1.994,4.642,2.011,5.095
			c-0.185-0.033-0.335-0.251-0.52-0.134c-0.212,0.665-0.938,4.163-1.26,5.718c-0.119-0.003-0.239-0.006-0.357-0.013
			c0.404-1.67,0.965-4.233,1.249-5.738c-0.101-0.202-0.469,0.1-0.503-0.185c0.202-0.201,0.554-0.185,0.67-0.504
			c-0.234-0.703-1.726-4.356-1.86-4.474c-0.084-0.084-1.542-0.704-1.492-0.906c0.201-0.081,0.553,0.034,0.721-0.081
			c0.117-0.454-0.268-0.756-0.101-1.09c0.302,0.401,0.704,0.869,0.956,0.953c0.268,0.102,1.625,0.068,1.91,0
			c0.184-0.301,0.251-0.652,0.318-1.104c-0.469-0.437-3.218-2.18-3.586-2.23c-0.52,0.554-3.117,3.319-3.15,3.521
			c-0.017,0.1,2.48,5.296,2.799,5.916c0,0.124-0.93,3.232-1.402,5.126c-4.027-1.656-6.877-5.656-6.877-10.326
			c0-0.419,0.025-0.831,0.07-1.24h4.723c0.083,0,0.151-0.066,0.151-0.15v-1.223c0-0.084-0.067-0.151-0.151-0.151h-4.45
			c1.219-4.814,5.542-8.379,10.667-8.379c5.125,0,9.449,3.564,10.667,8.379h-4.45c-0.084,0-0.15,0.067-0.15,0.151v1.223
			c0,0.084,0.066,0.15,0.15,0.15h4.724c0.044,0.409,0.07,0.821,0.07,1.24C185.655,130.322,181.784,134.855,176.691,135.829z"/>
		<path fill="#FFFFFF" d="M174.812,118.416c-0.067,0-1.894,1.861-1.927,2.113c0.302,0.317,1.424,0.903,1.793,1.121
			c0.285-0.268,1.257-1.473,1.542-1.91C175.867,119.288,175.332,118.786,174.812,118.416z"/>
		<path fill="#FFFFFF" d="M176.052,123.646c0.218-0.034,1.559-1.51,1.96-1.928c-0.268-0.437-1.105-1.608-1.474-1.659
			c-0.319,0.302-1.256,1.407-1.441,1.759c0.285,0.252,0.771,0.554,1.106,0.805C176.237,122.942,175.951,123.528,176.052,123.646z"/>
		<path fill="#FFFFFF" d="M179.505,123.612c0.016-0.252-0.637-1.224-1.207-1.592c-0.352,0.368-2.899,2.915-3.083,3.368
			c0.083,0.185,1.005,0.754,1.374,0.838C177.242,125.724,179.488,123.797,179.505,123.612z"/>
		<path fill="#FFFFFF" d="M176.991,126.578c0.1,0.234,0.603,0.839,0.737,1.005c0.285-0.101,3-1.676,3.15-1.994
			c-0.251-0.569-0.637-1.206-1.056-1.591C179.488,124.265,177.158,126.311,176.991,126.578z"/>
		<path fill="#FFFFFF" d="M173.002,124.249c-0.134,0.1,1.425,0.87,1.659,0.938c0.151-0.051,0.654-0.437,0.821-0.839
			C174.829,124.399,173.204,124.231,173.002,124.249z"/>
	</g>
	<g>
		<path fill="#FFFFFF" d="M230.88,117.436h-11.107c-4.106,0-7.446,3.341-7.446,7.446s3.34,7.446,7.446,7.446h11.107
			c4.106,0,7.446-3.341,7.446-7.446S234.986,117.436,230.88,117.436z M230.88,129.828h-11.107c-2.728,0-4.946-2.219-4.946-4.946
			s2.219-4.946,4.946-4.946h11.107c2.728,0,4.946,2.219,4.946,4.946S233.607,129.828,230.88,129.828z"/>
		<circle fill="#FFFFFF" cx="230.701" cy="124.882" r="4.167"/>
	</g>
	<path fill="#FFFFFF" d="M269.247,116.856l4.967,6.112l-1.061,0.861l-4.967-6.113c-3.808,3.549-4.273,9.484-0.943,13.582
		c3.476,4.278,9.762,4.93,14.04,1.452c4.277-3.477,4.927-9.762,1.451-14.04C279.405,114.612,273.499,113.855,269.247,116.856z"/>
	<circle fill="#FFFFFF" cx="275" cy="111.969" r="0.906"/>
	<circle fill="#FFFFFF" cx="266.819" cy="114.943" r="0.906"/>
	<circle fill="#FFFFFF" cx="282.819" cy="114.943" r="0.906"/>
	<g>
		<path fill="#FFFFFF" d="M468.793,131.451l8.404-4.201l4.202-8.404l-8.404,4.201L468.793,131.451z M475.77,127.137
			c-1.779,0.891-3.559,1.78-5.339,2.671c0.89-1.778,1.781-3.559,2.671-5.338C473.992,125.358,474.881,126.247,475.77,127.137z"/>
		<path fill="#FFFFFF" d="M474.781,110.674c-7.729,0-13.994,6.266-13.994,13.994c0,7.729,6.265,13.994,13.994,13.994
			s13.994-6.265,13.994-13.994C488.776,116.939,482.511,110.674,474.781,110.674z M478.366,134.985
			c-5.335,2.138-11.915-1.193-13.84-6.536c-2.741-6.389,2.591-14.438,9.479-14.668l0,0l0.128-0.001l0.193-0.004
			c5.175-0.407,10.024,3.534,11.105,8.524C486.832,127.545,483.394,133.264,478.366,134.985z"/>
	</g>
	<g>
		<rect x="9.724" y="160.812" fill="#FFFFFF" width="19.562" height="9.458"/>
		<rect x="29.933" y="160.812" fill="#FFFFFF" width="9.458" height="9.458"/>
		<rect x="9.724" y="170.917" fill="#FFFFFF" width="9.458" height="9.458"/>
		<rect x="19.828" y="170.917" fill="#FFFFFF" width="19.562" height="9.458"/>
		<rect x="9.724" y="181.021" fill="#FFFFFF" width="9.458" height="9.458"/>
		<rect x="19.828" y="181.021" fill="#FFFFFF" width="9.458" height="9.458"/>
		<rect x="29.933" y="181.021" fill="#FFFFFF" width="9.458" height="9.458"/>
	</g>
	<g>
		<g>
			<path fill-rule="evenodd" clip-rule="evenodd" fill="#FFFFFF" d="M63.114,172.103c0.383,0.195,1.159,0.098,1.694,0.098h20.724
				c0.581,0,1.209,0.049,1.549-0.193c0.453-0.323,0.344-1.26,0.338-2.034c-0.756-0.799-1.981-1.163-3.001-1.695
				c-2.005-1.045-4.076-1.992-6.102-3.049c-0.725-0.38-1.481-0.726-2.227-1.115c-0.342-0.178-0.703-0.501-1.162-0.532
				c-0.269,0.258-0.722,0.353-1.065,0.532c-0.822,0.428-1.676,0.819-2.518,1.259c-2.835,1.48-5.885,2.788-8.619,4.407
				C62.53,170.556,62.516,171.797,63.114,172.103z M69.311,183.626v-8.569c0.541-0.065,0.604-0.33,0.92-0.581
				c0.031-0.411,0.052-0.924,0.048-1.405h-5.761c-0.023,0.908-0.081,1.705,0.629,1.89c0.082,0.062,0.207,0.085,0.339,0.097v8.569
				H69.311z M76.962,183.626v-8.569c0.113-0.017,0.226-0.033,0.338-0.049c0.638-0.603,0.657-0.688,0.63-1.938h-5.811
				c-0.02,0.867-0.038,1.71,0.63,1.89c0.082,0.062,0.206,0.085,0.339,0.097v8.569H76.962z M84.563,183.626v-8.569
				c0.113-0.017,0.226-0.033,0.338-0.049c0.694-0.649,0.655-0.586,0.63-1.938h-5.763c-0.006,0.321-0.093,0.992,0.049,1.211
				c0.028,0.354,0.272,0.604,0.581,0.679c0.082,0.062,0.206,0.085,0.339,0.097v8.569H84.563z M87.419,186.435
				c0-0.628,0.072-1.331-0.242-1.646c-0.283-0.284-0.831-0.242-1.403-0.242H63.307c-0.18,0.147-0.4,0.313-0.582,0.436
				c-0.17,0.743-0.104,1.86-0.097,2.76c0.22,0.234,0.258,0.482,0.63,0.58c0.24,0.149,1.402,0.049,1.791,0.049h21.74
				c0.235-0.22,0.483-0.258,0.582-0.629C87.525,187.497,87.419,186.784,87.419,186.435z"/>
		</g>
	</g>
	<g>
		<g>
			<path fill-rule="evenodd" clip-rule="evenodd" fill="#FFFFFF" d="M142.107,170.753l-12.227-2.367l-1.002-6.008
				c-0.101-0.606-0.675-1.016-1.281-0.915l-17.674,2.948c-0.606,0.102-1.016,0.675-0.915,1.281l2.948,17.675
				c0.101,0.606,0.675,1.017,1.281,0.915l7.094-1.184l-0.527,2.722c-0.117,0.604,0.277,1.188,0.881,1.305l17.593,3.406
				c0.604,0.117,1.188-0.278,1.305-0.882l3.406-17.592C143.105,171.454,142.71,170.87,142.107,170.753z M114.614,179.457
				c-0.46,0.077-0.879-0.131-0.935-0.464l-1.621-9.72c-0.056-0.333,0.273-0.666,0.734-0.743l13.429-2.239
				c0.461-0.077,0.88,0.131,0.936,0.464l0.19,1.14l-2.832-0.548c-0.604-0.116-1.188,0.277-1.305,0.882l-1.96,10.122L114.614,179.457
				z M128.778,176.475c0.056,0.333-0.272,0.666-0.733,0.743l-4.247,0.708l1.021-5.277c0.064-0.332,0.488-0.528,0.947-0.44
				l2.377,0.46L128.778,176.475z M137.974,185.231c-0.064,0.332-0.488,0.529-0.947,0.44l-13.367-2.588
				c-0.302-0.059-0.531-0.23-0.643-0.433l7.895-1.317c0.607-0.101,1.017-0.675,0.915-1.281l-1.15-6.894l8.456,1.638
				c0.459,0.088,0.778,0.43,0.715,0.762L137.974,185.231z"/>
		</g>
	</g>
	<path fill="#FFFFFF" d="M187.74,179.056l4.301,2.159l-16.944,8.506l-16.944-8.506l4.302-2.159l12.643,6.347L187.74,179.056z
		 M175.097,179.765l-12.643-6.348l-4.302,2.159l16.944,8.506l16.944-8.506l-4.301-2.159L175.097,179.765z M192.041,170.077
		l-16.944-8.506l-16.944,8.506l16.944,8.504L192.041,170.077z"/>
</g>
</svg>
